<?xml version="1.0" encoding="UTF-8" standalone="no"?>
<svg
   xmlns:dc="http://purl.org/dc/elements/1.1/"
   xmlns:cc="http://creativecommons.org/ns#"
   xmlns:rdf="http://www.w3.org/1999/02/22-rdf-syntax-ns#"
   xmlns:svg="http://www.w3.org/2000/svg"
   xmlns="http://www.w3.org/2000/svg"
   width="58.450622mm"
   height="16.9333344mm"
   viewBox="0 0 103.55425 30.000002"
   id="svg4175"
   version="1.1">
  <defs
     id="defs4177" />
  <metadata
     id="metadata4180">
    <rdf:RDF>
      <cc:Work
         rdf:about="">
        <dc:format>image/svg+xml</dc:format>
        <dc:type
           rdf:resource="http://purl.org/dc/dcmitype/StillImage" />
        <dc:title></dc:title>
      </cc:Work>
    </rdf:RDF>
  </metadata>
  <g
     style="fill:#fff;fill-opacity:1"
     transform="matrix(0.22266288,0,0,-0.22266288,31.951015,12.362703)"
     id="g34-35-9">
    <path
       id="path36-62-1"
       style="fill:#fff;fill-opacity:1;fill-rule:nonzero;stroke:none"
       d="M 0,0 C -3.337,25.016 -22.673,49.194 -37.659,50.347 -42.021,52.523 -44.696,52.767 -49.094,53.151 -38.052,45.863 -36.223,29.964 -36.985,17.58 -37.757,5.108 -42.023,-4.414 -47.848,-13.646 -35.19,-6.392 -25.468,5.84 -19.385,19.028 -18.619,20.692 -14.749,21.343 -14.709,18.919 -14.239,-10.317 -28.129,-37.095 -53.693,-52.412 -59.883,-56.12 -66.08,-58.094 -72.079,-58.597 -77.798,-59.505 -89.662,-59.743 -90.124,-65.325 -90.248,-66.819 -95.008,-67.78 -94.86,-65.971 -94.452,-61.026 -88.721,-59.02 -82.77,-57.912 -83.632,-57.727 -84.487,-57.504 -85.332,-57.261 -92.381,-55.965 -105.162,-54.23 -105.688,-63.376 -105.767,-64.766 -110.474,-65.325 -110.431,-64.644 -109.952,-56.335 -100.994,-54.36 -92.414,-54.426 -101.373,-49.779 -109.006,-41.616 -114.275,-31.136 -114.313,-31.064 -114.294,-31 -114.324,-30.928 -114.367,-30.851 -114.443,-30.803 -114.477,-30.721 -117.333,-23.752 -122.053,-13.561 -121.109,-5.168 -128.185,-3.075 -135.636,-3.247 -142.83,-1.758 -143.889,-14.122 -144.729,-30.636 -136.666,-36.99 -137.225,-39.139 -137.948,-40.48 -136.036,-42.893 -134.847,-44.839 -133.606,-45.492 -131.972,-46.399 -132.943,-63.574 -95.224,-78.452 -81.312,-79.189 -75.416,-79.505 -71.012,-76.28 -65.563,-76.049 -59.424,-75.78 -56.203,-78.058 -49.82,-77.696 -48.305,-77.611 -35.955,-71.774 -35.353,-71.484 -28.674,-68.243 -25.896,-66.186 -26.902,-56.495 -4.203,-61.026 1.876,-14.034 0,0 M -106.732,-5.243 -106.732,-5.244 C -105.505,-4.732 -106.71,-4.548 -106.732,-5.243 M -105.153,-5.191 C -105.101,-5.279 -105.194,-5.4 -105.338,-5.527 -105.153,-5.576 -105.015,-5.642 -105.002,-5.756 -104.957,-6.338 -104.953,-7.004 -105.137,-7.565 -105.561,-8.802 -107.347,-9.154 -108.441,-9.379 -108.954,-9.482 -109.982,-9.706 -110.356,-9.209 -111.545,-7.646 -112.103,-5.928 -110.101,-4.907 -108.624,-4.148 -106.161,-3.479 -105.153,-5.191 M -142.533,1.557 C -142.461,2.34 -142.394,3.104 -142.333,3.833 -140.585,24.257 -136.296,32.427 -118.247,38.655 -113.313,44.106 -108.524,46.784 -102.381,50.134 -93.91,54.659 -74.687,59.569 -64.662,50.134 -63.913,52.189 -59.543,53.041 -56.375,53.616 -56.375,53.542 -56.403,53.498 -56.403,53.42 -55.606,26.723 -54.47,0.672 -70.809,-19.616 -71.333,-19.551 -71.857,-19.484 -72.364,-19.386 -72.355,-19.252 -72.362,-19.111 -72.456,-18.975 -85.155,-0.958 -82.786,30.904 -72.902,49.194 -72.161,50.567 -76.349,49.58 -76.694,49.39 -94.731,39.447 -97.967,18.677 -95.392,-0.208 -97.511,2.229 -99.891,4.32 -103.011,5.824 -108.903,8.666 -116.218,5.701 -119.344,0.459 -126.976,1.885 -134.786,1.591 -142.533,1.557" />
  </g>
</svg>
