<?xml version="1.0" encoding="UTF-8" standalone="no"?>
<svg
   xmlns:dc="http://purl.org/dc/elements/1.1/"
   xmlns:cc="http://creativecommons.org/ns#"
   xmlns:rdf="http://www.w3.org/1999/02/22-rdf-syntax-ns#"
   xmlns:svg="http://www.w3.org/2000/svg"
   xmlns="http://www.w3.org/2000/svg"
   width="29.225311mm"
   height="8.4666672mm"
   viewBox="0 0 103.55425 30.000002"
   id="svg4175"
   version="1.1">
  <defs
     id="defs4177" />
  <metadata
     id="metadata4180">
    <rdf:RDF>
      <cc:Work
         rdf:about="">
        <dc:format>image/svg+xml</dc:format>
        <dc:type
           rdf:resource="http://purl.org/dc/dcmitype/StillImage" />
        <dc:title></dc:title>
      </cc:Work>
    </rdf:RDF>
  </metadata>
  <g
     style="fill:#fff;fill-opacity:1"
     transform="matrix(0.22266288,0,0,-0.22266288,31.951015,12.362703)"
     id="g34-35-9">
    <path
       id="path36-62-1"
       style="fill:#fff;fill-opacity:1;fill-rule:nonzero;stroke:none"
       d="M 0,0 C -3.337,25.016 -22.673,49.194 -37.659,50.347 -42.021,52.523 -44.696,52.767 -49.094,53.151 -38.052,45.863 -36.223,29.964 -36.985,17.58 -37.757,5.108 -42.023,-4.414 -47.848,-13.646 -35.19,-6.392 -25.468,5.84 -19.385,19.028 -18.619,20.692 -14.749,21.343 -14.709,18.919 -14.239,-10.317 -28.129,-37.095 -53.693,-52.412 -59.883,-56.12 -66.08,-58.094 -72.079,-58.597 -77.798,-59.505 -89.662,-59.743 -90.124,-65.325 -90.248,-66.819 -95.008,-67.78 -94.86,-65.971 -94.452,-61.026 -88.721,-59.02 -82.77,-57.912 -83.632,-57.727 -84.487,-57.504 -85.332,-57.261 -92.381,-55.965 -105.162,-54.23 -105.688,-63.376 -105.767,-64.766 -110.474,-65.325 -110.431,-64.644 -109.952,-56.335 -100.994,-54.36 -92.414,-54.426 -101.373,-49.779 -109.006,-41.616 -114.275,-31.136 -114.313,-31.064 -114.294,-31 -114.324,-30.928 -114.367,-30.851 -114.443,-30.803 -114.477,-30.721 -117.333,-23.752 -122.053,-13.561 -121.109,-5.168 -128.185,-3.075 -135.636,-3.247 -142.83,-1.758 -143.889,-14.122 -144.729,-30.636 -136.666,-36.99 -137.225,-39.139 -137.948,-40.48 -136.036,-42.893 -134.847,-44.839 -133.606,-45.492 -131.972,-46.399 -132.943,-63.574 -95.224,-78.452 -81.312,-79.189 -75.416,-79.505 -71.012,-76.28 -65.563,-76.049 -59.424,-75.78 -56.203,-78.058 -49.82,-77.696 -48.305,-77.611 -35.955,-71.774 -35.353,-71.484 -28.674,-68.243 -25.896,-66.186 -26.902,-56.495 -4.203,-61.026 1.876,-14.034 0,0 M -106.732,-5.243 -106.732,-5.244 C -105.505,-4.732 -106.71,-4.548 -106.732,-5.243 M -105.153,-5.191 C -105.101,-5.279 -105.194,-5.4 -105.338,-5.527 -105.153,-5.576 -105.015,-5.642 -105.002,-5.756 -104.957,-6.338 -104.953,-7.004 -105.137,-7.565 -105.561,-8.802 -107.347,-9.154 -108.441,-9.379 -108.954,-9.482 -109.982,-9.706 -110.356,-9.209 -111.545,-7.646 -112.103,-5.928 -110.101,-4.907 -108.624,-4.148 -106.161,-3.479 -105.153,-5.191 M -142.533,1.557 C -142.461,2.34 -142.394,3.104 -142.333,3.833 -140.585,24.257 -136.296,32.427 -118.247,38.655 -113.313,44.106 -108.524,46.784 -102.381,50.134 -93.91,54.659 -74.687,59.569 -64.662,50.134 -63.913,52.189 -59.543,53.041 -56.375,53.616 -56.375,53.542 -56.403,53.498 -56.403,53.42 -55.606,26.723 -54.47,0.672 -70.809,-19.616 -71.333,-19.551 -71.857,-19.484 -72.364,-19.386 -72.355,-19.252 -72.362,-19.111 -72.456,-18.975 -85.155,-0.958 -82.786,30.904 -72.902,49.194 -72.161,50.567 -76.349,49.58 -76.694,49.39 -94.731,39.447 -97.967,18.677 -95.392,-0.208 -97.511,2.229 -99.891,4.32 -103.011,5.824 -108.903,8.666 -116.218,5.701 -119.344,0.459 -126.976,1.885 -134.786,1.591 -142.533,1.557" />
  </g>
  <g
     style="fill:#fff;fill-opacity:1"
     transform="matrix(0.41447428,0,0,-0.41447428,95.80108,11.008781)"
     id="g38">
    <path
       id="path40"
       style="fill:#fff;fill-opacity:1;fill-rule:nonzero;stroke:none"
       d="M 0,0 C -0.101,-1.789 -0.101,-7.435 0,-15.061 0.098,-22.686 2.71,-28.707 5.022,-30.218 7.326,-31.722 8.637,-30.688 9.744,-29.932 10.848,-29.175 12.757,-29.748 15.081,-28.433 17.387,-27.108 17.889,-22.777 18.087,-20.614 18.289,-18.449 18.489,-11.391 18.589,-8.938 18.696,-6.492 18.89,-3.2 18.289,-1.129 17.688,0.941 17.589,3.766 17.084,5.932 16.592,8.092 15.878,8.469 15.372,8.092 14.872,7.719 13.57,8.092 12.36,6.964 11.156,5.832 11.054,-2.068 11.355,-5.276 11.66,-8.47 11.756,-11.858 11.66,-14.405 11.559,-16.942 10.848,-21.462 10.148,-24.1 9.443,-26.731 8.331,-26.731 6.832,-26.166 5.328,-25.604 3.516,-15.248 3.32,-12.236 3.113,-9.224 2.914,3.292 2.914,4.517 2.914,5.743 2.832,7.595 2.114,7.063 -0.308,5.271 0.098,1.786 0,0 M -10.155,-9.224 C -10.155,-5.088 -11.859,0.471 -12.165,1.599 -12.462,2.727 -12.932,4.705 -14.173,4.705 -15.279,4.705 -16.381,1.599 -17.187,-1.503 -17.95,-4.463 -18.695,-12.424 -18.201,-15.437 -17.696,-18.449 -16.381,-22.501 -15.078,-23.155 -13.771,-23.813 -12.265,-22.972 -11.267,-22.028 -10.246,-21.087 -10.155,-13.367 -10.155,-9.224 M -4.024,-18.731 C -4.727,-21.649 -5.736,-24.189 -6.938,-25.515 -8.145,-26.827 -9.326,-30.119 -13.071,-30.119 -16.381,-30.119 -19.7,-25.98 -21.203,-22.686 -22.647,-19.55 -22.815,-15.811 -23.119,-12.611 -23.424,-9.413 -23.019,-2.826 -21.514,1.974 -20.01,6.772 -17.793,10.166 -14.881,10.821 -12.627,11.335 -10.554,8.092 -9.446,6.687 -8.34,5.271 -6.133,2.54 -5.93,0.286 -5.736,-1.974 -3.42,-6.492 -3.216,-8.095 -3.021,-9.693 -3.319,-15.811 -4.024,-18.731 M -31.614,-3.51 C -31.614,-4.829 -32.315,-9.249 -32.211,-11.888 -32.111,-14.52 -31.614,-24.213 -31.614,-26.195 -31.614,-28.169 -30.499,-28.545 -29.798,-29.206 -29.098,-29.862 -28.492,-29.676 -27.485,-29.676 -26.489,-29.676 -26.082,-28.824 -26.281,-27.89 -26.489,-26.948 -27.383,-16.878 -27.485,-15.653 -27.588,-14.434 -27.184,-10.756 -27.087,-9.343 -26.985,-7.934 -26.888,-5.673 -26.388,-4.829 -25.882,-3.983 -27.691,-2.283 -28.196,-1.254 -28.695,-0.214 -29.497,0.72 -30.202,0.536 -30.915,0.349 -31.808,0.253 -31.71,-0.869 -31.71,-0.869 -31.614,-2.193 -31.614,-3.51 M -31.406,7.22 C -31.508,5.995 -31.406,4.394 -31.013,4.022 -30.601,3.646 -29.902,3.454 -29.3,3.079 -28.695,2.706 -27.893,1.855 -26.685,2.417 -25.479,2.979 -26.082,4.394 -26.685,5.431 -27.287,6.466 -28.363,8.821 -29.599,8.821 -30.202,8.821 -31.313,8.44 -31.406,7.22 M -45.676,2.136 C -46.791,2.417 -49.548,3.412 -50.006,2.979 -50.607,2.417 -49.801,-0.026 -49.697,-1.625 -49.597,-3.227 -49.398,-7.271 -49.398,-8.217 -49.398,-9.157 -48.797,-8.969 -47.993,-8.687 -47.19,-8.401 -45.782,-8.026 -44.773,-6.898 -43.771,-5.77 -43.568,-3.51 -43.171,-0.967 -42.771,1.571 -44.575,1.855 -45.676,2.136 M -35.127,-5.673 C -36.23,-8.401 -36.837,-9.068 -38.752,-10.384 -40.654,-11.702 -41.765,-12.358 -43.069,-12.829 -44.375,-13.296 -47.889,-13.959 -48.699,-14.05 -49.499,-14.145 -49.198,-14.716 -49.301,-15.463 -49.398,-16.217 -49.301,-20.641 -49.301,-22.62 -49.301,-24.594 -49.597,-28.079 -49.697,-28.64 -49.801,-29.209 -49.597,-29.676 -50.607,-30.152 -51.608,-30.613 -52.41,-30.807 -53.519,-31.087 -54.62,-31.373 -55.425,-31.281 -56.229,-30.613 -56.882,-30.096 -56.529,-25.437 -56.634,-23.088 -56.737,-20.736 -57.238,0.349 -56.737,2.136 -56.229,3.924 -54.877,6.46 -53.726,7.036 -52.218,7.787 -52.318,7.312 -50.202,8.16 -48.092,9.009 -45.172,8.067 -42.869,6.939 -40.557,5.806 -37.538,2.892 -36.432,1.571 -35.33,0.253 -34.025,-2.946 -35.127,-5.673 M -79.677,1.104 C -79.778,-0.694 -79.778,-6.329 -79.677,-13.959 -79.576,-21.577 -76.962,-27.609 -74.648,-29.112 -72.34,-30.613 -71.033,-29.584 -69.923,-28.83 -68.823,-28.079 -66.913,-28.64 -64.598,-27.323 -62.29,-26.008 -61.786,-21.679 -61.582,-19.51 -61.376,-17.348 -61.186,-10.289 -61.084,-7.842 -60.983,-5.392 -60.788,-2.096 -61.376,-0.026 -61.982,2.043 -62.087,4.868 -62.59,7.036 -63.095,9.197 -63.794,9.568 -64.293,9.197 -64.8,8.821 -66.109,9.197 -67.308,8.067 -68.522,6.939 -68.62,-0.967 -68.319,-4.168 -68.018,-7.368 -67.912,-10.756 -68.018,-13.296 -68.116,-15.841 -68.823,-20.363 -69.53,-22.992 -70.229,-25.634 -71.333,-25.634 -72.844,-25.067 -74.348,-24.504 -76.16,-14.145 -76.363,-11.138 -76.561,-8.12 -76.765,4.394 -76.765,5.621 -76.765,6.845 -76.842,8.702 -77.564,8.16 -79.979,6.374 -79.576,2.892 -79.677,1.104 M -89.833,-8.12 C -89.833,-3.983 -91.54,1.571 -91.836,2.706 -92.138,3.832 -92.6,5.806 -93.848,5.806 -94.956,5.806 -96.061,2.706 -96.861,-0.401 -97.629,-3.354 -98.372,-11.322 -97.868,-14.333 -97.365,-17.348 -96.061,-21.394 -94.749,-22.055 -93.445,-22.712 -91.937,-21.864 -90.932,-20.923 -89.926,-19.979 -89.833,-12.268 -89.833,-8.12 M -83.698,-17.632 C -84.401,-20.548 -85.406,-23.088 -86.616,-24.405 -87.818,-25.726 -89.005,-29.021 -92.742,-29.021 -96.061,-29.021 -99.375,-24.877 -100.884,-21.577 -102.317,-18.449 -102.492,-14.716 -102.792,-11.512 -103.093,-8.313 -102.692,-1.72 -101.179,3.079 -99.676,7.881 -97.467,11.268 -94.554,11.927 -92.304,12.436 -90.232,9.197 -89.123,7.787 -88.021,6.374 -85.812,3.646 -85.609,1.388 -85.406,-0.869 -83.095,-5.392 -82.895,-6.993 -82.692,-8.592 -82.991,-14.716 -83.698,-17.632 M -110.73,-3.51 C -110.73,-4.829 -111.44,-9.249 -111.336,-11.888 -111.235,-14.52 -110.73,-24.213 -110.73,-26.195 -110.73,-28.169 -109.629,-28.545 -108.926,-29.206 -108.22,-29.862 -107.618,-29.676 -106.616,-29.676 -105.612,-29.676 -105.209,-28.824 -105.408,-27.89 -105.612,-26.948 -106.51,-16.878 -106.616,-15.653 -106.717,-14.434 -106.311,-10.756 -106.213,-9.343 -106.111,-7.934 -106.01,-5.673 -105.51,-4.829 -105.006,-3.983 -106.81,-2.283 -107.314,-1.254 -107.821,-0.214 -108.625,0.72 -109.333,0.536 -110.032,0.349 -110.934,0.253 -110.836,-0.869 -110.836,-0.869 -110.73,-2.193 -110.73,-3.51 M -110.537,7.22 C -110.633,5.995 -110.537,4.394 -110.129,4.022 -109.723,3.646 -109.024,3.454 -108.423,3.079 -107.821,2.706 -107.018,1.855 -105.811,2.417 -104.604,2.979 -105.209,4.394 -105.811,5.431 -106.407,6.466 -107.481,8.821 -108.72,8.821 -109.333,8.821 -110.434,8.44 -110.537,7.22 M -124.803,2.136 C -125.916,2.417 -128.669,3.412 -129.13,2.979 -129.733,2.417 -128.93,-0.026 -128.824,-1.625 -128.724,-3.227 -128.528,-7.271 -128.528,-8.217 -128.528,-9.157 -127.922,-8.969 -127.117,-8.687 -126.314,-8.401 -124.908,-8.026 -123.9,-6.898 -122.897,-5.77 -122.69,-3.51 -122.292,-0.967 -121.89,1.571 -123.705,1.855 -124.803,2.136 M -114.256,-5.673 C -115.361,-8.401 -115.958,-9.068 -117.868,-10.384 -119.781,-11.702 -120.882,-12.358 -122.193,-12.829 -123.499,-13.296 -127.017,-13.959 -127.816,-14.05 -128.621,-14.145 -128.325,-14.716 -128.425,-15.463 -128.528,-16.217 -128.425,-20.641 -128.425,-22.62 -128.425,-24.594 -128.724,-28.079 -128.824,-28.64 -128.93,-29.209 -128.724,-29.676 -129.733,-30.152 -130.736,-30.613 -131.541,-30.807 -132.646,-31.087 -133.753,-31.373 -134.556,-31.281 -135.357,-30.613 -135.998,-30.096 -135.661,-25.437 -135.763,-23.088 -135.864,-20.736 -136.36,0.349 -135.864,2.136 -135.357,3.924 -134.004,6.46 -132.841,7.036 -131.339,7.787 -131.441,7.312 -129.328,8.16 -127.219,9.009 -124.302,8.067 -121.991,6.939 -119.676,5.806 -116.661,2.892 -115.558,1.571 -114.452,0.253 -113.151,-2.946 -114.256,-5.673" />
  </g>
</svg>
